<svg xmlns="http://www.w3.org/2000/svg" width="600" height="600" viewBox="0 0 600 600"><path fill="none" stroke="#000" stroke-linejoin="round" stroke-width="4" d="M500.000,300.000 L503.638,305.332 L506.770,310.836 L509.062,316.454 L510.255,322.099 L510.186,327.672 L508.810,333.072 L506.197,338.216 L502.529,343.049 L498.080,347.555 L493.185,351.764 L488.208,355.750 L483.503,359.624 L479.377,363.521 L476.061,367.584 L473.689,371.944 L472.283,376.705 L471.755,381.923 L471.917,387.596 L472.505,393.662 L473.205,400.000 L473.690,406.437 L473.650,412.769 L472.826,418.780 L471.036,424.265 L468.191,429.057 L464.299,433.046 L459.463,436.195 L453.871,438.546 L447.765,440.223 L441.421,441.421 L435.118,442.385 L429.106,443.387 L423.585,444.699 L418.682,446.560 L414.447,449.150 L410.849,452.570 L407.782,456.824 L405.086,461.819 L402.562,467.366 L400.000,473.205 L397.201,479.022 L394.000,484.486 L390.282,489.280 L385.989,493.135 L381.129,495.862 L375.764,497.371 L370.002,497.680 L363.983,496.920 L357.856,495.319 L351.764,493.185 L345.823,490.868 L340.116,488.730 L334.678,487.105 L329.502,486.265 L324.539,486.392 L319.713,487.554 L314.930,489.705 L310.098,492.682 L305.138,496.225 L300.000,500.000 L294.668,503.638 L289.164,506.770 L283.546,509.062 L277.901,510.255 L272.328,510.186 L266.928,508.810 L261.784,506.197 L256.951,502.529 L252.445,498.080 L248.236,493.185 L244.250,488.208 L240.376,483.503 L236.479,479.377 L232.416,476.061 L228.056,473.689 L223.295,472.283 L218.077,471.755 L212.404,471.917 L206.338,472.505 L200.000,473.205 L193.563,473.690 L187.231,473.650 L181.220,472.826 L175.735,471.036 L170.943,468.191 L166.954,464.299 L163.805,459.463 L161.454,453.871 L159.777,447.765 L158.579,441.421 L157.615,435.118 L156.613,429.106 L155.301,423.585 L153.440,418.682 L150.850,414.447 L147.430,410.849 L143.176,407.782 L138.181,405.086 L132.634,402.562 L126.795,400.000 L120.978,397.201 L115.514,394.000 L110.720,390.282 L106.865,385.989 L104.138,381.129 L102.629,375.764 L102.320,370.002 L103.080,363.983 L104.681,357.856 L106.815,351.764 L109.132,345.823 L111.270,340.116 L112.895,334.678 L113.735,329.502 L113.608,324.539 L112.446,319.713 L110.295,314.930 L107.318,310.098 L103.775,305.138 L100.000,300.000 L96.362,294.668 L93.230,289.164 L90.938,283.546 L89.745,277.901 L89.814,272.328 L91.190,266.928 L93.803,261.784 L97.471,256.951 L101.920,252.445 L106.815,248.236 L111.792,244.250 L116.497,240.376 L120.623,236.479 L123.939,232.416 L126.311,228.056 L127.717,223.295 L128.245,218.077 L128.083,212.404 L127.495,206.338 L126.795,200.000 L126.310,193.563 L126.350,187.231 L127.174,181.220 L128.964,175.735 L131.809,170.943 L135.701,166.954 L140.537,163.805 L146.129,161.454 L152.235,159.777 L158.579,158.579 L164.882,157.615 L170.894,156.613 L176.415,155.301 L181.318,153.440 L185.553,150.850 L189.151,147.430 L192.218,143.176 L194.914,138.181 L197.438,132.634 L200.000,126.795 L202.799,120.978 L206.000,115.514 L209.718,110.720 L214.011,106.865 L218.871,104.138 L224.236,102.629 L229.998,102.320 L236.017,103.080 L242.144,104.681 L248.236,106.815 L254.177,109.132 L259.884,111.270 L265.322,112.895 L270.498,113.735 L275.461,113.608 L280.287,112.446 L285.070,110.295 L289.902,107.318 L294.862,103.775 L300.000,100.000 L305.332,96.362 L310.836,93.230 L316.454,90.938 L322.099,89.745 L327.672,89.814 L333.072,91.190 L338.216,93.803 L343.049,97.471 L347.555,101.920 L351.764,106.815 L355.750,111.792 L359.624,116.497 L363.521,120.623 L367.584,123.939 L371.944,126.311 L376.705,127.717 L381.923,128.245 L387.596,128.083 L393.662,127.495 L400.000,126.795 L406.437,126.310 L412.769,126.350 L418.780,127.174 L424.265,128.964 L429.057,131.809 L433.046,135.701 L436.195,140.537 L438.546,146.129 L440.223,152.235 L441.421,158.579 L442.385,164.882 L443.387,170.894 L444.699,176.415 L446.560,181.318 L449.150,185.553 L452.570,189.151 L456.824,192.218 L461.819,194.914 L467.366,197.438 L473.205,200.000 L479.022,202.799 L484.486,206.000 L489.280,209.718 L493.135,214.011 L495.862,218.871 L497.371,224.236 L497.680,229.998 L496.920,236.017 L495.319,242.144 L493.185,248.236 L490.868,254.177 L488.730,259.884 L487.105,265.322 L486.265,270.498 L486.392,275.461 L487.554,280.287 L489.705,285.070 L492.682,289.902 L496.225,294.862 L500.000,300.000 Z"/></svg>